PathFileType	4	(X/Y/Z)	D:\Share\Shared_Data\Ergonomics\Sit To Stand Pertubation\S0\Free STS.trc
DataRate	CameraRate	NumFrames	NumMarkers	Units	OrigDataRate	OrigDataStartFrame	OrigNumFrames	
100	100	6	18	m	100	1791	191
Frame#	Time	R_Toe			R_ASIS			R_Pelvis			V_Sacral			L_Pelvis			L_ASIS			Clavical			R_Acromium			L_Acromium			Sternum			Torso			R_Thigh_Med			R_Thigh_Lat			R_Thigh			R_Shank_Med			R_Shank_Lat			R_Shank			R_Heel			
		X1	Y1	Z1	X2	Y2	Z2	X3	Y3	Z3	X4	Y4	Z4	X5	Y5	Z5	X6	Y6	Z6	X7	Y7	Z7	X8	Y8	Z8	X9	Y9	Z9	X10	Y10	Z10	X11	Y11	Z11	X12	Y12	Z12	X13	Y13	Z13	X14	Y14	Z14	X15	Y15	Z15	X16	Y16	Z16	X17	Y17	Z17	X18	Y18	Z18	

1791	4.33	0.38253741	0.042811954	0.14156294	0.28610556	0.9570368	0.16450981	0.17486607	1.003495	0.21284953	0.051265984	1.0282307	-0.015113021	0.18590143	0.99275269	-0.20035107	0.29452066	0.94537555	-0.15014046	0.43938724	1.3589387	0.0024681962	0.37768097	1.4367858	0.14561664	0.36555154	1.4458712	-0.14352887	0.44711496	1.261297	-0.015896422	0.43064606	1.3149069	-0.12020758	0.34509601	0.48233694	0.059808769	0.34121463	0.50451141	0.1902431	0.38737195	0.65122626	0.12385458	0.25476042	0.097402687	0.1005462	0.19904286	0.090198059	0.19125455	0.27268198	0.30963312	0.2082052	0.15527898	0.046542866	0.14841405
1792	4.34	0.382534	0.042821842	0.14164458	0.28957205	0.96051819	0.16428609	0.17783084	1.0058354	0.21248962	0.054441608	1.0299133	-0.015547117	0.18932001	0.99510815	-0.20063429	0.29838803	0.94877625	-0.15042046	0.43801584	1.3646887	0.0023576567	0.37535223	1.4419579	0.14554594	0.36329971	1.4509624	-0.14382199	0.44696652	1.2671597	-0.016026138	0.42980508	1.3205693	-0.1203792	0.3438244	0.48285574	0.059361263	0.33969998	0.50515427	0.1896364	0.38764615	0.65123779	0.12342874	0.25474742	0.097523239	0.10049133	0.19889343	0.090254738	0.19114142	0.27160831	0.31002158	0.20781967	0.15527342	0.04660424	0.14837053
1793	4.35	0.38253018	0.042831688	0.14171901	0.29303577	0.96388812	0.16406465	0.18075536	1.0080959	0.21210222	0.057611511	1.0314812	-0.016017813	0.19274681	0.99736432	-0.20093935	0.30223523	0.95207446	-0.15070616	0.43658868	1.3702789	0.002238811	0.37294833	1.4469606	0.14545769	0.3610007	1.4558636	-0.14413008	0.44677444	1.2728779	-0.016163231	0.42892151	1.3260704	-0.12056411	0.34251297	0.4833703	0.05886517	0.33816083	0.50580673	0.18897774	0.38783734	0.65122144	0.1229166	0.25473848	0.097644684	0.1004303	0.19874777	0.090318565	0.19101326	0.27050876	0.31041776	0.2074061	0.15526164	0.046669769	0.14831908
1794	4.36	0.38252631	0.042841038	0.14178607	0.29650943	0.96715131	0.16384644	0.18364613	1.010265	0.21168681	0.060770203	1.032933	-0.016521257	0.19616846	0.99951318	-0.20126497	0.30604254	0.95525891	-0.15100076	0.43510684	1.3757028	0.0021098499	0.37047836	1.4517826	0.14535471	0.35865479	1.4605647	-0.14445152	0.44653418	1.2784447	-0.016309578	0.42799362	1.331405	-0.12076523	0.3411333	0.48386847	0.058321316	0.33660284	0.50646616	0.18826945	0.38796451	0.65117883	0.1223185	0.25472585	0.097764244	0.10036508	0.19860741	0.090390518	0.19087196	0.26938702	0.31082016	0.2069657	0.15524702	0.04673772	0.14826108
1795	4.37	0.38252301	0.04284967	0.14184604	0.30000702	0.97031299	0.16363251	0.18651064	1.0123295	0.21124617	0.063911476	1.0342684	-0.017052385	0.19957053	1.0015472	-0.20160944	0.30980173	0.95832458	-0.15131023	0.43357196	1.3809532	0.0019688662	0.36795154	1.4564139	0.1452395	0.35626245	1.4650582	-0.14478465	0.44624094	1.2838524	-0.016466953	0.42702097	1.3365692	-0.12098421	0.33965466	0.48433768	0.057729465	0.33503284	0.50712918	0.18751495	0.38804892	0.65111151	0.12163857	0.25470049	0.097878036	0.10029747	0.19847379	0.09047187	0.19071922	0.26824796	0.31122873	0.20649976	0.15523621	0.046806213	0.14819756
1796	4.38	0.38252124	0.042857628	0.14189957	0.30354205	0.97337817	0.16342381	0.18935461	1.0142772	0.21078622	0.067028442	1.0354858	-0.017604828	0.2029395	1.0034597	-0.2019695	0.31351141	0.961271	-0.15164241	0.43198648	1.3860232	0.0018139557	0.36537738	1.4608462	0.14511368	0.35382425	1.469338	-0.14512799	0.44589096	1.2890938	-0.016637003	0.42600528	1.3415576	-0.12122121	0.33805984	0.48476974	0.057088608	0.33345984	0.50779163	0.1867184	0.38810846	0.65102008	0.12088289	0.25465865	0.097984451	0.10022854	0.19834805	0.090563362	0.19055725	0.26709833	0.31164374	0.20601071	0.15523747	0.046873215	0.14812933
